<svg width="25" height="26" viewBox="0 0 25 26" fill="none" xmlns="http://www.w3.org/2000/svg">
<path d="M16.199 14.0377L14.1052 16.1385C13.2562 16.9906 11.7622 17.0089 10.8948 16.1385L8.80089 14.0377L1.28058 21.5824C1.56051 21.7118 1.86915 21.7891 2.19728 21.7891H22.8027C23.1309 21.7891 23.4394 21.7119 23.7192 21.5824L16.199 14.0377Z" fill="white"/>
<path d="M22.8027 4.21094H2.19724C1.86912 4.21094 1.56047 4.28818 1.28064 4.41763L9.31663 12.4803C9.31716 12.4808 9.3178 12.4809 9.31833 12.4814C9.31887 12.482 9.31897 12.4827 9.31897 12.4827L11.9319 15.1043C12.2094 15.3818 12.7906 15.3818 13.0681 15.1043L15.6805 12.4832C15.6805 12.4832 15.6812 12.482 15.6817 12.4814C15.6817 12.4814 15.6829 12.4808 15.6834 12.4803L23.7192 4.41758C23.4394 4.28809 23.1308 4.21094 22.8027 4.21094Z" fill="white"/>
<path d="M0.233691 5.44199C0.0888672 5.73486 0 6.05995 0 6.4082V19.5918C0 19.94 0.0887695 20.2651 0.233643 20.558L7.76699 13.0002L0.233691 5.44199Z" fill="white"/>
<path d="M24.7663 5.44189L17.233 13.0002L24.7663 20.5581C24.9111 20.2652 25 19.9401 25 19.5918V6.4082C25 6.05986 24.9111 5.73477 24.7663 5.44189Z" fill="white"/>
</svg>
