<svg width="50" height="50" viewBox="0 0 50 50" fill="none" xmlns="http://www.w3.org/2000/svg">
<path d="M32.3979 27.0753L28.2104 31.2771C26.5122 32.9812 23.5243 33.0179 21.7895 31.2771L17.6017 27.0753L2.56104 42.1648C3.1209 42.4237 3.73818 42.5781 4.39443 42.5781H45.6054C46.2616 42.5781 46.8787 42.4239 47.4384 42.1649L32.3979 27.0753Z" fill="black"/>
<path d="M45.6057 7.42188H4.39473C3.73848 7.42188 3.12119 7.57637 2.56152 7.83525L18.6335 23.9605C18.6346 23.9616 18.6358 23.9618 18.6369 23.9629C18.638 23.964 18.6382 23.9654 18.6382 23.9654L23.8641 29.2086C24.4191 29.7637 25.5814 29.7637 26.1365 29.2086L31.3613 23.9663C31.3613 23.9663 31.3626 23.964 31.3637 23.9629C31.3637 23.9629 31.366 23.9616 31.3671 23.9605L47.4387 7.83516C46.879 7.57617 46.2619 7.42188 45.6057 7.42188Z" fill="black"/>
<path d="M0.467383 9.88397C0.177734 10.4697 0 11.1199 0 11.8164V38.1836C0 38.8801 0.177539 39.5303 0.467285 40.116L15.534 25.0005L0.467383 9.88397Z" fill="black"/>
<path d="M49.5328 9.88379L34.4663 25.0005L49.5328 40.1162C49.8225 39.5305 50.0002 38.8803 50.0002 38.1836V11.8164C50.0002 11.1197 49.8225 10.4695 49.5328 9.88379Z" fill="black"/>
</svg>
