<svg width="15" height="16" viewBox="0 0 15 16" fill="none" xmlns="http://www.w3.org/2000/svg">
<path fill-rule="evenodd" clip-rule="evenodd" d="M7.5 15.5C3.36448 15.5 0 12.1355 0 8C0 3.86448 3.36448 0.5 7.5 0.5C11.6355 0.5 15 3.86448 15 8C15 12.1355 11.6355 15.5 7.5 15.5ZM11.3894 10.6347C11.4819 10.6347 11.5571 10.5595 11.5571 10.467V5.75847L7.7412 8.7887C7.6706 8.8448 7.58525 8.87284 7.49997 8.87284C7.41469 8.87284 7.32937 8.84478 7.25874 8.7887L3.44285 5.75847V10.467C3.44285 10.5595 3.51812 10.6347 3.61058 10.6347H11.3894ZM10.8046 5.3653L7.5 7.98957L4.19534 5.3653H10.8046ZM12.333 5.53303V10.467C12.333 10.9873 11.9097 11.4106 11.3894 11.4106H3.61058C3.09026 11.4106 2.66701 10.9873 2.66701 10.467V5.53303C2.66701 5.01274 3.09029 4.58946 3.61058 4.58946H11.3894C11.9097 4.58943 12.333 5.01274 12.333 5.53303Z" fill="white"/>
</svg>
