<svg width="70" height="70" viewBox="0 0 70 70" fill="none" xmlns="http://www.w3.org/2000/svg">
<rect width="70" height="70" rx="10" fill="#3B5998"/>
<path d="M32.1399 37.32C32.0349 37.32 29.7249 37.32 28.6749 37.32C28.1149 37.32 27.9399 37.11 27.9399 36.585C27.9399 35.185 27.9399 33.75 27.9399 32.35C27.9399 31.79 28.1499 31.615 28.6749 31.615H32.1399C32.1399 31.51 32.1399 29.48 32.1399 28.535C32.1399 27.135 32.3849 25.805 33.0849 24.58C33.8199 23.32 34.8699 22.48 36.1999 21.99C37.0749 21.675 37.9499 21.535 38.8949 21.535H42.3249C42.8149 21.535 43.0249 21.745 43.0249 22.235V26.225C43.0249 26.715 42.8149 26.925 42.3249 26.925C41.3799 26.925 40.4349 26.925 39.4899 26.96C38.5449 26.96 38.0549 27.415 38.0549 28.395C38.0199 29.445 38.0549 30.46 38.0549 31.545H42.1149C42.6749 31.545 42.8849 31.755 42.8849 32.315V36.55C42.8849 37.11 42.7099 37.285 42.1149 37.285C40.8549 37.285 38.1599 37.285 38.0549 37.285V48.695C38.0549 49.29 37.8799 49.5 37.2499 49.5C35.7799 49.5 34.3449 49.5 32.8749 49.5C32.3499 49.5 32.1399 49.29 32.1399 48.765C32.1399 45.09 32.1399 37.425 32.1399 37.32Z" fill="white"/>
</svg>
