<svg width="25" height="26" viewBox="0 0 25 26" fill="none" xmlns="http://www.w3.org/2000/svg">
<path d="M10.1 14.2999C10.025 14.2999 8.375 14.2999 7.625 14.2999C7.225 14.2999 7.1 14.1499 7.1 13.7749C7.1 12.7749 7.1 11.7499 7.1 10.7499C7.1 10.3499 7.25 10.2249 7.625 10.2249H10.1C10.1 10.1499 10.1 8.6999 10.1 8.0249C10.1 7.0249 10.275 6.0749 10.775 5.1999C11.3 4.2999 12.05 3.6999 13 3.3499C13.625 3.1249 14.25 3.0249 14.925 3.0249H17.375C17.725 3.0249 17.875 3.1749 17.875 3.5249V6.3749C17.875 6.7249 17.725 6.8749 17.375 6.8749C16.7 6.8749 16.025 6.8749 15.35 6.8999C14.675 6.8999 14.325 7.2249 14.325 7.9249C14.3 8.6749 14.325 9.3999 14.325 10.1749H17.225C17.625 10.1749 17.775 10.3249 17.775 10.7249V13.7499C17.775 14.1499 17.65 14.2749 17.225 14.2749C16.325 14.2749 14.4 14.2749 14.325 14.2749V22.4249C14.325 22.8499 14.2 22.9999 13.75 22.9999C12.7 22.9999 11.675 22.9999 10.625 22.9999C10.25 22.9999 10.1 22.8499 10.1 22.4749C10.1 19.8499 10.1 14.3749 10.1 14.2999Z" fill="white"/>
</svg>
