<svg width="30" height="30" viewBox="0 0 30 30" fill="none" xmlns="http://www.w3.org/2000/svg">
<g clip-path="url(#clip0_3155_35203)">
<path d="M15 7.88226L4.30063 16.7028C4.30063 16.7152 4.2975 16.7335 4.29125 16.7585C4.28512 16.7833 4.28186 16.8012 4.28186 16.814V25.7457C4.28186 26.0682 4.39976 26.3477 4.6355 26.583C4.87117 26.8185 5.15025 26.937 5.47281 26.937H12.618V19.7914H17.3821V26.9372H24.5272C24.8496 26.9372 25.1291 26.819 25.3645 26.583C25.6002 26.3479 25.7185 26.0683 25.7185 25.7457V16.814C25.7185 16.7645 25.7117 16.7271 25.6997 16.7028L15 7.88226Z" fill="white"/>
<path d="M29.793 14.693L25.7181 11.3064V3.71429C25.7181 3.54073 25.6623 3.398 25.5503 3.28629C25.4393 3.17471 25.2965 3.11892 25.1226 3.11892H21.5499C21.3762 3.11892 21.2335 3.17471 21.1217 3.28629C21.0102 3.398 20.9545 3.5408 20.9545 3.71429V7.3428L16.4143 3.54666C16.0178 3.22411 15.5463 3.06287 15.0004 3.06287C14.4545 3.06287 13.9831 3.22411 13.5862 3.54666L0.206711 14.693C0.0826826 14.7921 0.0147049 14.9254 0.0020609 15.0929C-0.0105179 15.2603 0.0328236 15.4065 0.132216 15.5304L1.28588 16.9075C1.38527 17.0191 1.51536 17.0873 1.67667 17.1123C1.8256 17.1248 1.97452 17.0812 2.12345 16.982L15 6.24492L27.8766 16.982C27.9761 17.0685 28.1061 17.1117 28.2674 17.1117H28.3233C28.4844 17.0872 28.6142 17.0185 28.7141 16.9072L29.8679 15.5304C29.9671 15.4062 30.0106 15.2602 29.9977 15.0927C29.985 14.9256 29.9167 14.7923 29.793 14.693Z" fill="white"/>
</g>
<defs>
<clipPath id="clip0_3155_35203">
<rect width="30" height="30" fill="white"/>
</clipPath>
</defs>
</svg>
