<svg width="70" height="70" viewBox="0 0 70 70" fill="none" xmlns="http://www.w3.org/2000/svg">
<g clip-path="url(#clip0_3139_34111)">
<path d="M4.37501 4.76291C-1.12582 10.4767 1.15186e-05 16.5462 1.15186e-05 34.9854C1.15186e-05 50.2979 -2.67166 65.6483 11.3108 69.2621C15.6771 70.385 54.3638 70.385 58.7242 69.2562C64.5458 67.7542 69.2825 63.0321 69.93 54.7983C70.0204 53.6492 70.0204 16.3421 69.9271 15.1696C69.2388 6.39916 63.84 1.34458 56.7263 0.320826C55.0958 0.0845763 54.7692 0.0145762 46.4042 -7.09295e-06C16.7329 0.0145762 10.2288 -1.30667 4.37501 4.76291Z" fill="url(#paint0_linear_3139_34111)"/>
<g clip-path="url(#clip1_3139_34111)">
<path d="M35.5004 18.0169C28.3325 18.0169 21.5258 17.3797 18.9259 24.0469C17.8519 26.8006 18.0079 30.3768 18.0079 35.4975C18.0079 39.991 17.8638 44.2142 18.9259 46.9462C21.5198 53.6173 28.3818 52.9782 35.4965 52.9782C42.3604 52.9782 49.4376 53.6923 52.0691 46.9462C53.145 44.1649 52.987 40.6419 52.987 35.4975C52.987 28.6686 53.3641 24.26 50.0496 20.95C46.6936 17.5967 42.1551 18.0169 35.4925 18.0169H35.5004ZM33.933 21.167C48.8849 21.1433 50.7879 19.4825 49.7377 42.5553C49.3646 50.7157 43.1461 49.8202 35.5024 49.8202C21.5652 49.8202 21.1645 49.4217 21.1645 35.4896C21.1645 21.3958 22.27 21.1749 33.933 21.1631V21.167ZM44.8379 24.0686C43.6791 24.0686 42.7395 25.0076 42.7395 26.1654C42.7395 27.3233 43.6791 28.2623 44.8379 28.2623C45.9967 28.2623 46.9364 27.3233 46.9364 26.1654C46.9364 25.0076 45.9967 24.0686 44.8379 24.0686ZM35.5004 26.5205C30.5395 26.5205 26.5183 30.5405 26.5183 35.4975C26.5183 40.4545 30.5395 44.4726 35.5004 44.4726C40.4614 44.4726 44.4806 40.4545 44.4806 35.4975C44.4806 30.5405 40.4614 26.5205 35.5004 26.5205ZM35.5004 29.6706C43.2093 29.6706 43.2192 41.3244 35.5004 41.3244C27.7935 41.3244 27.7817 29.6706 35.5004 29.6706Z" fill="white"/>
</g>
</g>
<defs>
<linearGradient id="paint0_linear_3139_34111" x1="4.50924" y1="65.529" x2="69.5668" y2="9.22242" gradientUnits="userSpaceOnUse">
<stop stop-color="#FFDD55"/>
<stop offset="0.5" stop-color="#FF543E"/>
<stop offset="1" stop-color="#C837AB"/>
</linearGradient>
<clipPath id="clip0_3139_34111">
<rect width="70" height="70" fill="white"/>
</clipPath>
<clipPath id="clip1_3139_34111">
<rect width="35" height="35" fill="white" transform="translate(18 18)"/>
</clipPath>
</defs>
</svg>
