<svg width="25" height="26" viewBox="0 0 25 26" fill="none" xmlns="http://www.w3.org/2000/svg">
<g clip-path="url(#clip0_3146_35064)">
<path d="M12.4979 3.76965C8.71563 3.76965 5.12396 3.43319 3.75209 6.95403C3.18542 8.40819 3.26771 10.2967 3.26771 13.0009C3.26771 15.3738 3.19167 17.604 3.75209 19.0467C5.12084 22.5697 8.74167 22.2322 12.4958 22.2322C16.1177 22.2322 19.8521 22.6092 21.2406 19.0467C21.8083 17.578 21.725 15.7176 21.725 13.0009C21.725 9.39465 21.924 7.06653 20.175 5.31861C18.4042 3.54778 16.0094 3.76965 12.4938 3.76965H12.4979ZM11.6708 5.43319C19.5604 5.42069 20.5646 4.54361 20.0104 16.728C19.8136 21.0374 16.5323 20.5644 12.499 20.5644C5.14479 20.5644 4.93334 20.354 4.93334 12.9967C4.93334 5.55403 5.51667 5.43736 11.6708 5.43111V5.43319ZM17.425 6.96548C16.8136 6.96548 16.3177 7.46132 16.3177 8.07278C16.3177 8.68423 16.8136 9.18007 17.425 9.18007C18.0365 9.18007 18.5323 8.68423 18.5323 8.07278C18.5323 7.46132 18.0365 6.96548 17.425 6.96548ZM12.4979 8.26028C9.88021 8.26028 7.75834 10.3832 7.75834 13.0009C7.75834 15.6186 9.88021 17.7405 12.4979 17.7405C15.1156 17.7405 17.2365 15.6186 17.2365 13.0009C17.2365 10.3832 15.1156 8.26028 12.4979 8.26028ZM12.4979 9.92382C16.5656 9.92382 16.5708 16.078 12.4979 16.078C8.43125 16.078 8.425 9.92382 12.4979 9.92382Z" fill="white"/>
</g>
<defs>
<clipPath id="clip0_3146_35064">
<rect width="25" height="25" fill="white" transform="translate(0 0.5)"/>
</clipPath>
</defs>
</svg>
