<svg width="512" height="512" viewBox="0 0 512 512" fill="none" xmlns="http://www.w3.org/2000/svg">
<g clip-path="url(#clip0_3645_904)">
<path d="M442.182 0H69.8182C31.2587 0 0 31.2587 0 69.8182V442.182C0 480.741 31.2587 512 69.8182 512H442.182C480.741 512 512 480.741 512 442.182V69.8182C512 31.2587 480.741 0 442.182 0Z" fill="#0077B5"/>
<path d="M184.436 139.636C184.436 148.267 181.877 156.703 177.082 163.879C172.287 171.055 165.472 176.648 157.499 179.951C149.525 183.254 140.752 184.118 132.287 182.434C123.822 180.751 116.047 176.595 109.944 170.492C103.842 164.389 99.6858 156.614 98.0021 148.149C96.3183 139.685 97.1825 130.911 100.485 122.937C103.788 114.964 109.381 108.149 116.557 103.354C123.733 98.5592 132.17 96 140.8 96C152.373 96 163.472 100.597 171.656 108.781C179.839 116.964 184.436 128.063 184.436 139.636Z" fill="white"/>
<path d="M174.545 212.364V405.149C174.553 406.571 174.279 407.981 173.741 409.297C173.202 410.613 172.408 411.81 171.405 412.818C170.402 413.827 169.209 414.627 167.896 415.173C166.583 415.719 165.175 416 163.753 416H117.76C116.338 416.004 114.929 415.727 113.614 415.184C112.299 414.642 111.105 413.845 110.099 412.839C109.093 411.833 108.296 410.639 107.754 409.324C107.211 408.009 106.934 406.6 106.938 405.178V212.364C106.938 209.494 108.078 206.741 110.108 204.711C112.137 202.682 114.89 201.542 117.76 201.542H163.753C166.618 201.55 169.363 202.693 171.386 204.722C173.409 206.75 174.545 209.499 174.545 212.364Z" fill="white"/>
<path d="M414.953 312.727V406.051C414.957 407.359 414.702 408.654 414.203 409.863C413.705 411.072 412.972 412.17 412.047 413.095C411.123 414.019 410.024 414.752 408.816 415.25C407.607 415.749 406.311 416.004 405.004 416H355.549C354.242 416.004 352.946 415.749 351.737 415.25C350.528 414.752 349.43 414.019 348.506 413.095C347.581 412.17 346.848 411.072 346.35 409.863C345.851 408.654 345.596 407.359 345.6 406.051V315.607C345.6 302.109 349.556 256.495 310.313 256.495C279.913 256.495 273.716 287.709 272.495 301.731V406.051C272.495 408.665 271.467 411.173 269.632 413.035C267.798 414.897 265.304 415.962 262.691 416H214.924C213.619 416 212.326 415.742 211.121 415.242C209.915 414.742 208.82 414.008 207.899 413.084C206.977 412.16 206.247 411.063 205.75 409.856C205.254 408.649 205 407.356 205.004 406.051V211.52C205 210.215 205.254 208.922 205.75 207.715C206.247 206.508 206.977 205.411 207.899 204.487C208.82 203.562 209.915 202.829 211.121 202.329C212.326 201.828 213.619 201.571 214.924 201.571H262.691C265.33 201.571 267.86 202.619 269.726 204.485C271.592 206.351 272.64 208.881 272.64 211.52V228.335C283.927 211.404 300.655 198.342 336.349 198.342C415.418 198.342 414.953 272.175 414.953 312.727Z" fill="white"/>
</g>
<defs>
<clipPath id="clip0_3645_904">
<rect width="512" height="512" fill="white"/>
</clipPath>
</defs>
</svg>
