<svg width="25" height="26" viewBox="0 0 25 26" fill="none" xmlns="http://www.w3.org/2000/svg">
<g clip-path="url(#clip0_3140_34145)">
<path d="M12.5 0.5C8.10718 0.5 4.44336 4.03857 4.44336 8.55664C4.44336 10.2755 4.95986 11.8082 5.95112 13.2444L11.8834 22.5013C12.1712 22.9513 12.8293 22.9504 13.1166 22.5013L19.0746 13.2129C20.0445 11.8418 20.5566 10.2318 20.5566 8.55664C20.5566 4.11421 16.9424 0.5 12.5 0.5ZM12.5 12.2188C10.4808 12.2188 8.83789 10.5758 8.83789 8.55664C8.83789 6.53745 10.4808 4.89453 12.5 4.89453C14.5192 4.89453 16.1621 6.53745 16.1621 8.55664C16.1621 10.5758 14.5192 12.2188 12.5 12.2188Z" fill="white"/>
<path d="M18.2258 17.3308L14.5377 23.0968C13.5831 24.5852 11.4116 24.5803 10.4615 23.0982L6.76748 17.3323C3.51729 18.0838 1.51367 19.4604 1.51367 21.1055C1.51367 23.9601 7.17422 25.5 12.5 25.5C17.8258 25.5 23.4863 23.9601 23.4863 21.1055C23.4863 19.4592 21.4799 18.0819 18.2258 17.3308Z" fill="white"/>
</g>
<defs>
<clipPath id="clip0_3140_34145">
<rect width="25" height="25" fill="white" transform="translate(0 0.5)"/>
</clipPath>
</defs>
</svg>
