<svg width="15" height="16" viewBox="0 0 15 16" fill="none" xmlns="http://www.w3.org/2000/svg">
<path fill-rule="evenodd" clip-rule="evenodd" d="M7.5 15.5C3.35852 15.5 0 12.1415 0 8C0 3.85852 3.35852 0.5 7.5 0.5C11.6415 0.5 15 3.85852 15 8C15 12.1415 11.6415 15.5 7.5 15.5ZM7.5 3.12169C9.55169 3.12169 11.2149 4.78486 11.2149 6.83656C11.2149 8.88819 7.5 12.8782 7.5 12.8782C7.5 12.8782 3.78514 8.88819 3.78514 6.83656C3.78514 4.78486 5.44831 3.12169 7.5 3.12169ZM7.5 5.36059C8.27787 5.36059 8.9087 5.99142 8.9087 6.76935C8.9087 7.54722 8.27787 8.17805 7.5 8.17805C6.72213 8.17805 6.0913 7.54722 6.0913 6.76935C6.0913 5.99142 6.72213 5.36059 7.5 5.36059Z" fill="white"/>
</svg>
