<svg width="51" height="50" viewBox="0 0 51 50" fill="none" xmlns="http://www.w3.org/2000/svg">
<path d="M25.5 0C16.7144 0 9.38672 7.07715 9.38672 16.1133C9.38672 19.551 10.4197 22.6164 12.4022 25.4889L24.2669 44.0025C24.8425 44.9025 26.1587 44.9008 26.7331 44.0025L38.6492 25.4259C40.5891 22.6836 41.6133 19.4636 41.6133 16.1133C41.6133 7.22842 34.3849 0 25.5 0ZM25.5 23.4375C21.4616 23.4375 18.1758 20.1517 18.1758 16.1133C18.1758 12.0749 21.4616 8.78906 25.5 8.78906C29.5384 8.78906 32.8242 12.0749 32.8242 16.1133C32.8242 20.1517 29.5384 23.4375 25.5 23.4375Z" fill="black"/>
<path d="M36.9516 33.6616L29.5755 45.1936C27.6662 48.1703 23.3231 48.1605 21.423 45.1964L14.035 33.6646C7.53457 35.1676 3.52734 37.9208 3.52734 41.2109C3.52734 46.9201 14.8484 50 25.5 50C36.1516 50 47.4727 46.9201 47.4727 41.2109C47.4727 37.9185 43.4599 35.1638 36.9516 33.6616Z" fill="black"/>
</svg>
