<svg width="25" height="25" viewBox="0 0 25 25" fill="none" xmlns="http://www.w3.org/2000/svg">
<g clip-path="url(#clip0_3138_33856)">
<path d="M23.4375 21.875H1.56251C0.699529 21.875 0 21.1754 0 20.3125C0 19.4496 0.699529 18.75 1.56251 18.75H23.4375C24.3005 18.75 25.0001 19.4496 25.0001 20.3125C25 21.1754 24.3005 21.875 23.4375 21.875Z" fill="black"/>
<path d="M23.4375 14.0625H1.56251C0.699529 14.0625 0 13.3629 0 12.5C0 11.6371 0.699529 10.9375 1.56251 10.9375H23.4375C24.3005 10.9375 25.0001 11.637 25.0001 12.5C25.0001 13.363 24.3005 14.0625 23.4375 14.0625Z" fill="black"/>
<path d="M23.4375 6.24996H1.56251C0.699529 6.24996 0 5.55043 0 4.68745C0 3.82447 0.699529 3.12494 1.56251 3.12494H23.4375C24.3005 3.12494 25.0001 3.82447 25.0001 4.68745C25.0001 5.55043 24.3005 6.24996 23.4375 6.24996Z" fill="black"/>
</g>
<defs>
<clipPath id="clip0_3138_33856">
<rect width="25" height="25" fill="white"/>
</clipPath>
</defs>
</svg>
