<svg width="50" height="50" viewBox="0 0 50 50" fill="none" xmlns="http://www.w3.org/2000/svg">
<g clip-path="url(#clip0_3146_35072)">
<path d="M38.0137 33.076C36.3801 31.4633 34.3408 31.4633 32.7177 33.076C31.4795 34.3037 30.2413 35.5315 29.024 36.78C28.691 37.1234 28.4101 37.1962 28.0043 36.9673C27.2031 36.5303 26.3499 36.1766 25.58 35.6979C21.9903 33.4402 18.9833 30.5373 16.3197 27.2703C14.9983 25.6472 13.8226 23.9096 13.0006 21.9536C12.8341 21.5582 12.8653 21.2981 13.1879 20.9755C14.426 19.779 15.633 18.5513 16.8504 17.3236C18.5463 15.6172 18.5463 13.6196 16.84 11.9028C15.8723 10.9248 14.9047 9.96756 13.937 8.98954C12.9382 7.9907 11.9497 6.98147 10.9404 5.99304C9.3069 4.40114 7.26756 4.40114 5.64441 6.00344C4.39584 7.23117 3.19929 8.49012 1.92991 9.69705C0.754166 10.8103 0.161093 12.1733 0.036236 13.7652C-0.161455 16.3559 0.473237 18.801 1.36805 21.1836C3.19929 26.1154 5.98777 30.4957 9.36933 34.5118C13.937 39.943 19.3891 44.2401 25.7673 47.3406C28.639 48.7348 31.6147 49.8065 34.8506 49.9834C37.0773 50.1082 39.0126 49.5464 40.5629 47.8088C41.6241 46.6227 42.8207 45.5406 43.9444 44.4065C45.6092 42.721 45.6196 40.6817 43.9652 39.017C41.9883 37.0297 40.001 35.0529 38.0137 33.076Z" fill="black"/>
<path d="M36.0263 24.7836L39.8657 24.1281C39.2622 20.601 37.5975 17.4068 35.0691 14.8681C32.3951 12.1942 29.0135 10.5086 25.2886 9.9884L24.7476 13.8485C27.6297 14.2543 30.2517 15.5548 32.3222 17.6253C34.2783 19.5814 35.5581 22.0576 36.0263 24.7836Z" fill="black"/>
<path d="M42.0303 8.09472C37.5979 3.66239 31.9897 0.863575 25.7989 0L25.2578 3.86008C30.6059 4.6092 35.4545 7.03346 39.2835 10.8519C42.9147 14.4831 45.2974 19.0715 46.161 24.1177L50.0004 23.4622C48.9911 17.6149 46.2339 12.3086 42.0303 8.09472Z" fill="black"/>
</g>
<defs>
<clipPath id="clip0_3146_35072">
<rect width="50.0004" height="50" fill="white"/>
</clipPath>
</defs>
</svg>
