<svg width="30" height="30" viewBox="0 0 30 30" fill="none" xmlns="http://www.w3.org/2000/svg">
<g clip-path="url(#clip0_3140_34126)">
<path d="M22.808 19.8456C21.8279 18.878 20.6043 18.878 19.6304 19.8456C18.8875 20.5822 18.1447 21.3189 17.4143 22.068C17.2145 22.274 17.0459 22.3177 16.8025 22.1804C16.3218 21.9182 15.8099 21.7059 15.3479 21.4187C13.1942 20.0641 11.39 18.3224 9.7919 16.3621C8.99907 15.3883 8.29365 14.3458 7.80047 13.1721C7.70059 12.9349 7.71932 12.7788 7.91284 12.5853C8.65572 11.8674 9.37988 11.1308 10.1103 10.3941C11.1278 9.37031 11.1278 8.1717 10.104 7.14166C9.52346 6.55484 8.94289 5.98051 8.36232 5.39369C7.76301 4.79439 7.16996 4.18885 6.56441 3.59579C5.58431 2.64066 4.36073 2.64066 3.38687 3.60203C2.63774 4.33868 1.91983 5.09404 1.15822 5.8182C0.452794 6.48617 0.0969588 7.30397 0.0220462 8.2591C-0.0965654 9.81354 0.28424 11.2806 0.821114 12.7102C1.91983 15.6692 3.59288 18.2974 5.62176 20.7071C8.36232 23.9658 11.6335 26.544 15.4603 28.4043C17.1833 29.2409 18.9687 29.8839 20.9102 29.99C22.2461 30.0649 23.4073 29.7278 24.3374 28.6853C24.9742 27.9736 25.6921 27.3244 26.3663 26.6439C27.3651 25.6326 27.3714 24.409 26.3788 23.4102C25.1927 22.2178 24.0003 21.0317 22.808 19.8456Z" fill="white"/>
<path d="M21.6157 14.8702L23.9192 14.4769C23.5572 12.3606 22.5583 10.4441 21.0413 8.92085C19.437 7.31647 17.4081 6.30515 15.1732 5.99301L14.8486 8.30906C16.5778 8.55253 18.151 9.33286 19.3933 10.5752C20.5669 11.7488 21.3348 13.2346 21.6157 14.8702Z" fill="white"/>
<path d="M25.2177 4.85683C22.5583 2.19744 19.1935 0.518146 15.4791 0L15.1545 2.31605C18.3632 2.76552 21.2723 4.22008 23.5697 6.51115C25.7484 8.68986 27.178 11.4429 27.6961 14.4706L29.9997 14.0773C29.3941 10.5689 27.7398 7.38513 25.2177 4.85683Z" fill="white"/>
</g>
<defs>
<clipPath id="clip0_3140_34126">
<rect width="30" height="30" fill="white"/>
</clipPath>
</defs>
</svg>
