<svg width="15" height="16" viewBox="0 0 15 16" fill="none" xmlns="http://www.w3.org/2000/svg">
<path d="M12.8025 2.6959C9.87314 -0.232586 5.12438 -0.231882 2.1959 2.69751C-0.732586 5.6269 -0.731883 10.3756 2.19751 13.3041C5.1269 16.2326 9.87563 16.2319 12.8041 13.3025C14.2105 11.8956 15.0004 9.98767 15 7.99839C14.9996 6.00943 14.2091 4.10209 12.8025 2.6959ZM11.3585 10.9474C11.3582 10.9477 11.3578 10.9481 11.3575 10.9484V10.9459L10.9775 11.3234C10.486 11.8211 9.77028 12.0258 9.08998 11.8634C8.40458 11.6799 7.75301 11.3879 7.15999 10.9984C6.60903 10.6463 6.09844 10.2347 5.63749 9.77091C5.21336 9.34988 4.83232 8.88758 4.49998 8.39091C4.13646 7.85647 3.84874 7.27429 3.64498 6.6609C3.4114 5.94032 3.60496 5.14962 4.14499 4.61841L4.58998 4.17342C4.7137 4.04915 4.91473 4.04871 5.03898 4.17243C5.0393 4.17275 5.03966 4.17307 5.03998 4.17342L6.44497 5.57841C6.56924 5.70213 6.56968 5.90317 6.44596 6.02742C6.44564 6.02774 6.44532 6.02806 6.44497 6.02841L5.61997 6.85341C5.38325 7.08755 5.35348 7.45962 5.54998 7.72842C5.84837 8.13793 6.17857 8.52327 6.53749 8.88093C6.93765 9.28282 7.37268 9.64842 7.83748 9.97343C8.10604 10.1608 8.47014 10.1292 8.70247 9.89843L9.49996 9.08844C9.62368 8.96416 9.82471 8.96372 9.94896 9.08744C9.94928 9.08776 9.9496 9.08809 9.94995 9.08844L11.3575 10.4984C11.4818 10.6221 11.4822 10.8231 11.3585 10.9474Z" fill="white"/>
</svg>
