<svg width="512" height="512" viewBox="0 0 512 512" fill="none" xmlns="http://www.w3.org/2000/svg">
<g clip-path="url(#clip0_3645_899)">
<path d="M442.182 0H69.8182C31.2587 0 0 31.2587 0 69.8182V442.182C0 480.741 31.2587 512 69.8182 512H442.182C480.741 512 512 480.741 512 442.182V69.8182C512 31.2587 480.741 0 442.182 0Z" fill="#1C8ADB"/>
<path d="M395.462 132.364L390.167 134.284L102.807 237.818C100.771 238.448 99.0011 239.735 97.7751 241.479C96.5491 243.223 95.9363 245.324 96.0328 247.453C96.1293 249.583 96.9296 251.62 98.3083 253.245C99.6869 254.871 101.566 255.993 103.651 256.436L178.036 276.8L191.913 317.527L205.789 358.255C206.586 360.251 207.859 362.023 209.496 363.416C211.133 364.809 213.086 365.781 215.184 366.249C217.283 366.716 219.463 366.664 221.537 366.097C223.611 365.53 225.515 364.466 227.084 362.996L265.513 326.691L340.975 377.862C350.196 384.145 363.346 379.491 365.702 369.135L415.68 148.305C418.124 137.367 406.604 128.378 395.462 132.364ZM358.778 181.382L228.946 287.505L222.836 292.509C221.494 293.573 220.618 295.117 220.393 296.815L219.026 308.102L215.273 339.811C215.304 340.197 215.18 340.579 214.929 340.874C214.678 341.168 214.32 341.351 213.935 341.382C213.549 341.413 213.167 341.289 212.872 341.038C212.577 340.787 212.395 340.429 212.364 340.044L201.804 308.364L190.895 275.927C190.433 274.469 190.495 272.896 191.068 271.478C191.641 270.061 192.691 268.887 194.036 268.16L329.135 190.72L354.56 176.175C358.255 174.022 362.036 178.705 358.778 181.382Z" fill="white"/>
</g>
<defs>
<clipPath id="clip0_3645_899">
<rect width="512" height="512" fill="white"/>
</clipPath>
</defs>
</svg>
