<svg width="25" height="26" viewBox="0 0 25 26" fill="none" xmlns="http://www.w3.org/2000/svg">
<g clip-path="url(#clip0_3146_35060)">
<path d="M12.6936 25.5H12.6864C8.9564 25.4747 6.08892 24.245 4.16226 21.8438C2.44717 19.7073 1.56304 16.7345 1.53335 13.009V12.991C1.56309 9.2646 2.44717 6.29263 4.16226 4.1562C6.08799 1.75503 8.9564 0.525195 12.6855 0.5H12.6999C15.5593 0.518896 17.9514 1.25444 19.8105 2.68418C21.5581 4.02837 22.7879 5.94424 23.4667 8.37959L21.342 8.97202C20.1924 4.84766 17.2826 2.73911 12.6927 2.70581C9.66226 2.72739 7.37095 3.67993 5.88096 5.53643C4.48545 7.27495 3.76431 9.78594 3.73818 12.9991C3.76519 16.2132 4.48633 18.7242 5.88096 20.4619C7.371 22.3183 9.66226 23.2708 12.6927 23.2924C15.4242 23.2726 17.2321 22.6361 18.7357 21.1632C20.4517 19.4822 20.4202 17.4206 19.8709 16.1665C19.5478 15.4272 18.9606 14.8115 18.1693 14.3451C17.9704 15.7514 17.5229 16.893 16.8314 17.7528C15.9095 18.9007 14.6023 19.5283 12.9475 19.6173C11.6951 19.6848 10.4887 19.3887 9.55239 18.7828C8.44497 18.0661 7.79678 16.9695 7.72744 15.6947C7.65991 14.455 8.15151 13.3151 9.11123 12.485C10.0287 11.6918 11.3188 11.2264 12.843 11.1409C13.9666 11.0778 15.0172 11.1274 15.9887 11.2894C15.86 10.516 15.5989 9.90293 15.21 9.45996C14.6751 8.85044 13.8478 8.53897 12.7521 8.53174H12.7215C11.8419 8.53174 10.6472 8.773 9.8855 9.90561L8.05518 8.6749C9.07432 7.15967 10.73 6.32598 12.7206 6.32598H12.7656C16.0941 6.34668 18.0757 8.38228 18.2729 11.9376C18.3862 11.9854 18.4971 12.0348 18.6069 12.0862C20.16 12.8164 21.2952 13.922 21.8912 15.2833C22.7213 17.1811 22.7978 20.2737 20.2779 22.7405C18.353 24.6257 16.0157 25.4766 12.6999 25.4991H12.6927L12.6936 25.5ZM13.738 13.3214C13.4859 13.3214 13.2302 13.3286 12.969 13.3439C11.0559 13.452 9.86387 14.328 9.9314 15.5758C10.0025 16.8831 11.4448 17.4907 12.8304 17.4161C14.1062 17.3476 15.7664 16.8515 16.0445 13.5509C15.3404 13.4006 14.5663 13.3214 13.7379 13.3214H13.738Z" fill="white"/>
</g>
<defs>
<clipPath id="clip0_3146_35060">
<rect width="25" height="25" fill="white" transform="translate(0 0.5)"/>
</clipPath>
</defs>
</svg>
