<svg width="70" height="70" viewBox="0 0 70 70" fill="none" xmlns="http://www.w3.org/2000/svg">
<rect width="70" height="70" rx="10" fill="black"/>
<path d="M35.6244 52H35.6143C30.3923 51.9646 26.3778 50.243 23.6805 46.8813C21.2793 43.8903 20.0416 39.7283 20 34.5126V34.4874C20.0416 29.2704 21.2793 25.1097 23.6805 22.1187C26.3765 18.757 30.3923 17.0353 35.613 17H35.6332C39.6363 17.0265 42.9853 18.0562 45.5881 20.0579C48.0346 21.9397 49.7564 24.6219 50.7068 28.0314L47.7322 28.8608C46.1226 23.0867 42.0489 20.1348 35.6231 20.0881C31.3805 20.1183 28.1726 21.4519 26.0866 24.051C24.1329 26.4849 23.1233 30.0003 23.0868 34.4988C23.1246 38.9985 24.1342 42.5139 26.0866 44.9466C28.1727 47.5456 31.3805 48.8791 35.6231 48.9093C39.4472 48.8817 41.9783 47.9906 44.0833 45.9285C46.4856 43.5751 46.4415 40.6888 45.6726 38.933C45.2202 37.8981 44.3982 37.0361 43.2903 36.3831C43.0119 38.352 42.3853 39.9502 41.4173 41.154C40.1266 42.761 38.2965 43.6396 35.9798 43.7643C34.2265 43.8587 32.5375 43.4442 31.2267 42.5959C29.6763 41.5926 28.7688 40.0573 28.6717 38.2725C28.5772 36.537 29.2654 34.9412 30.609 33.779C31.8934 32.6686 33.6996 32.017 35.8335 31.8972C37.4065 31.809 38.8774 31.8783 40.2375 32.1052C40.0573 31.0224 39.6918 30.1641 39.1473 29.5439C38.3985 28.6906 37.2402 28.2546 35.7062 28.2444H35.6634C34.432 28.2444 32.7593 28.5822 31.693 30.1679L29.1306 28.4449C30.5574 26.3235 32.8754 25.1564 35.6622 25.1564H35.7252C40.385 25.1854 43.1593 28.0352 43.4354 33.0126C43.594 33.0796 43.7492 33.1487 43.9029 33.2207C46.0773 34.2429 47.6666 35.7908 48.501 37.6966C49.6632 40.3535 49.7703 44.6832 46.2423 48.1367C43.5475 50.776 40.2753 51.9672 35.6332 51.9988H35.6231L35.6244 52ZM37.0865 34.9499C36.7336 34.9499 36.3756 34.96 36.01 34.9815C33.3316 35.1327 31.6627 36.3592 31.7573 38.1061C31.8569 39.9363 33.8761 40.787 35.8159 40.6825C37.6019 40.5866 39.9263 39.8921 40.3157 35.2713C39.3299 35.0609 38.2461 34.9499 37.0864 34.9499H37.0865Z" fill="white"/>
</svg>
