<svg width="25" height="26" viewBox="0 0 25 26" fill="none" xmlns="http://www.w3.org/2000/svg">
<path fill-rule="evenodd" clip-rule="evenodd" d="M20.7905 4.67509C18.5978 2.47983 15.6817 1.27033 12.5751 1.26904C6.17356 1.26904 0.96364 6.47882 0.961065 12.8821C0.960207 14.929 1.49493 16.9271 2.51131 18.6884L0.863647 24.7065L7.02043 23.0915C8.71687 24.0169 10.6267 24.5046 12.5704 24.5051H12.5752C18.9761 24.5051 24.1866 19.2949 24.189 12.8914C24.1903 9.78802 22.9834 6.87021 20.7905 4.67509ZM12.5751 22.5438H12.5711C10.839 22.543 9.1403 22.0775 7.658 21.1982L7.30567 20.9889L3.65214 21.9474L4.62732 18.3853L4.39773 18.02C3.43142 16.4831 2.92115 14.7067 2.92201 12.8828C2.92401 7.56058 7.25446 3.23056 12.579 3.23056C15.1573 3.23142 17.581 4.23678 19.4035 6.0614C21.226 7.88602 22.2291 10.3113 22.2282 12.8907C22.2259 18.2133 17.8957 22.5438 12.5751 22.5438ZM17.87 15.3141C17.5799 15.1688 16.1531 14.4669 15.887 14.37C15.6212 14.2731 15.4275 14.2249 15.2343 14.5153C15.0407 14.8057 14.4847 15.4594 14.3153 15.653C14.1459 15.8467 13.9769 15.871 13.6866 15.7256C13.3964 15.5805 12.4614 15.2739 11.3529 14.2853C10.4903 13.5158 9.90791 12.5655 9.73854 12.2751C9.56945 11.9844 9.73711 11.8425 9.86586 11.6829C10.18 11.2928 10.4946 10.8838 10.5913 10.6902C10.6881 10.4966 10.6396 10.327 10.5669 10.1818C10.4946 10.0366 9.91421 8.60828 9.67245 8.02707C9.4367 7.46144 9.19766 7.53783 9.01942 7.52896C8.85034 7.52052 8.65679 7.5188 8.46324 7.5188C8.26983 7.5188 7.95541 7.59133 7.68933 7.88201C7.4234 8.17255 6.67381 8.8745 6.67381 10.3029C6.67381 11.7312 7.71365 13.1111 7.85871 13.3048C8.00376 13.4985 9.90505 16.4296 12.816 17.6865C13.5084 17.9857 14.0488 18.1641 14.4704 18.2979C15.1656 18.5187 15.798 18.4875 16.2982 18.4129C16.8558 18.3295 18.0149 17.7108 18.257 17.033C18.4987 16.3551 18.4987 15.7741 18.426 15.653C18.3537 15.532 18.1601 15.4594 17.87 15.3141Z" fill="white"/>
</svg>
