<svg width="70" height="70" viewBox="0 0 70 70" fill="none" xmlns="http://www.w3.org/2000/svg">
<rect width="70" height="70" rx="10" fill="#4CAF50"/>
<path fill-rule="evenodd" clip-rule="evenodd" d="M47.1067 23.8451C44.037 20.7718 39.9544 19.0785 35.6051 19.0767C26.643 19.0767 19.3491 26.3704 19.3455 35.3349C19.3443 38.2006 20.0929 40.998 21.5158 43.4637L19.2091 51.8892L27.8286 49.6281C30.2036 50.9237 32.8774 51.6064 35.5985 51.6072H35.6053C44.5665 51.6072 51.8612 44.3129 51.8646 35.3479C51.8664 31.0032 50.1767 26.9183 47.1067 23.8451ZM35.6051 48.8613H35.5995C33.1746 48.8603 30.7964 48.2086 28.7212 46.9775L28.2279 46.6845L23.113 48.0263L24.4783 43.0394L24.1568 42.5281C22.804 40.3763 22.0896 37.8894 22.0908 35.3359C22.0936 27.8848 28.1562 21.8228 35.6105 21.8228C39.2202 21.824 42.6134 23.2315 45.1649 25.786C47.7164 28.3404 49.1207 31.7358 49.1195 35.3469C49.1163 42.7986 43.054 48.8613 35.6051 48.8613ZM43.018 38.7397C42.6118 38.5363 40.6143 37.5537 40.2418 37.4179C39.8697 37.2824 39.5986 37.2149 39.328 37.6214C39.057 38.028 38.2786 38.9432 38.0414 39.2142C37.8043 39.4853 37.5676 39.5194 37.1613 39.3159C36.7549 39.1126 35.4459 38.6835 33.894 37.2994C32.6864 36.2221 31.8711 34.8917 31.634 34.4852C31.3972 34.0782 31.632 33.8795 31.8122 33.656C32.252 33.1099 32.6924 32.5373 32.8278 32.2663C32.9634 31.9952 32.8955 31.7579 32.7937 31.5546C32.6924 31.3513 31.8799 29.3516 31.5414 28.5379C31.2114 27.746 30.8767 27.853 30.6272 27.8405C30.3905 27.8287 30.1195 27.8263 29.8485 27.8263C29.5778 27.8263 29.1376 27.9279 28.7651 28.3348C28.3928 28.7416 27.3433 29.7243 27.3433 31.724C27.3433 33.7237 28.7991 35.6555 29.0022 35.9267C29.2053 36.1979 31.8671 40.3014 35.9424 42.061C36.9117 42.48 37.6683 42.7297 38.2585 42.917C39.2319 43.2262 40.1173 43.1826 40.8174 43.078C41.5981 42.9613 43.2209 42.0951 43.5597 41.1462C43.8982 40.1971 43.8982 39.3838 43.7965 39.2142C43.6951 39.0447 43.4241 38.9432 43.018 38.7397Z" fill="white"/>
</svg>
