<svg width="25" height="26" viewBox="0 0 25 26" fill="none" xmlns="http://www.w3.org/2000/svg">
<g clip-path="url(#clip0_3146_35067)">
<path d="M24.4849 6.99871C24.1967 5.92774 23.3523 5.08355 22.2816 4.79516C20.3252 4.25977 12.4998 4.25977 12.4998 4.25977C12.4998 4.25977 4.67452 4.25977 2.71816 4.77475C1.66798 5.06295 0.802998 5.92793 0.514799 6.99871C7.62939e-06 8.95488 7.62939e-06 13.0118 7.62939e-06 13.0118C7.62939e-06 13.0118 7.62939e-06 17.0891 0.514799 19.0249C0.803189 20.0957 1.64738 20.94 2.71835 21.2284C4.69512 21.7638 12.5 21.7638 12.5 21.7638C12.5 21.7638 20.3252 21.7638 22.2816 21.2488C23.3525 20.9606 24.1967 20.1163 24.4851 19.0455C24.9999 17.0891 24.9999 13.0324 24.9999 13.0324C24.9999 13.0324 25.0205 8.95488 24.4849 6.99871Z" fill="white"/>
<path d="M10.0082 16.7595L16.5155 13.0116L10.0082 9.26367V16.7595Z" fill="#343A40"/>
</g>
<defs>
<clipPath id="clip0_3146_35067">
<rect width="25" height="25" fill="white" transform="translate(0 0.5)"/>
</clipPath>
</defs>
</svg>
