<svg width="70" height="70" viewBox="0 0 70 70" fill="none" xmlns="http://www.w3.org/2000/svg">
<rect width="70" height="70" rx="10" fill="#FF1100"/>
<g clip-path="url(#clip0_3139_34104)">
<path d="M52.2789 27.0982C51.8754 25.5988 50.6933 24.417 49.1942 24.0132C46.4553 23.2637 35.4997 23.2637 35.4997 23.2637C35.4997 23.2637 24.5443 23.2637 21.8054 23.9846C20.3352 24.3881 19.1242 25.5991 18.7207 27.0982C18 29.8368 18 35.5165 18 35.5165C18 35.5165 18 41.2248 18.7207 43.9348C19.1245 45.4339 20.3063 46.616 21.8057 47.0198C24.5732 47.7693 35.4999 47.7693 35.4999 47.7693C35.4999 47.7693 46.4553 47.7693 49.1942 47.0484C50.6935 46.6449 51.8754 45.4628 52.2791 43.9637C52.9999 41.2248 52.9999 35.5453 52.9999 35.5453C52.9999 35.5453 53.0287 29.8368 52.2789 27.0982Z" fill="white"/>
<path d="M32.0115 40.7636L41.1217 35.5165L32.0115 30.2694V40.7636Z" fill="#FF0000"/>
</g>
<defs>
<clipPath id="clip0_3139_34104">
<rect width="35" height="35" fill="white" transform="translate(18 18)"/>
</clipPath>
</defs>
</svg>
